<svg xmlns="http://www.w3.org/2000/svg" viewBox="0 0 232.93 76.54"><defs><style>.cls-1{fill:#fff;}.cls-2,.cls-4,.cls-6,.cls-7,.cls-8{fill:none;}.cls-2,.cls-8{stroke:#9f2d91;}.cls-2,.cls-6{stroke-width:1.8px;}.cls-3{fill:#9f2d91;}.cls-4{stroke:#231f20;}.cls-4,.cls-7{stroke-width:1.8px;}.cls-5{fill:#231f20;}.cls-6,.cls-7{stroke:#fff;}.cls-8{stroke-width:1.2px;}</style></defs><g id="Layer_2" data-name="Layer 2"><g id="Layer_1-2" data-name="Layer 1"><polygon class="cls-1" points="1.33 2.5 1.33 13.52 12.35 13.52 12.35 2.5 1.33 2.5 1.33 2.5"/><polygon class="cls-2" points="1.33 2.5 1.33 13.52 12.35 13.52 12.35 2.5 1.33 2.5 1.33 2.5"/><polygon class="cls-1" points="27.36 2.5 27.36 13.52 38.38 13.52 38.38 2.5 27.36 2.5 27.36 2.5"/><path class="cls-3" d="M39.28,14.42H26.46V1.6H39.28Zm-11-1.8h9.22V3.4H28.26Z"/><path class="cls-1" d="M19.83,38.38A18.74,18.74,0,1,0,1.09,19.64,18.74,18.74,0,0,0,19.83,38.38Z"/><path class="cls-2" d="M19.83,38.38A18.74,18.74,0,1,0,1.09,19.64,18.74,18.74,0,0,0,19.83,38.38Z"/><polygon class="cls-1" points="14.88 16.1 19.81 21.04 24.75 16.1 19.81 11.17 14.88 16.1 14.88 16.1"/><polygon class="cls-4" points="14.88 16.1 19.81 21.04 24.75 16.1 19.81 11.17 14.88 16.1 14.88 16.1"/><path class="cls-1" d="M10.08,22A9.19,9.19,0,1,0,.9,12.76,9.19,9.19,0,0,0,10.08,22Z"/><path class="cls-2" d="M10.08,22A9.19,9.19,0,1,0,.9,12.76,9.19,9.19,0,0,0,10.08,22Z"/><path class="cls-1" d="M29.2,22A9.19,9.19,0,1,0,20,12.76,9.19,9.19,0,0,0,29.2,22Z"/><path class="cls-2" d="M29.2,22A9.19,9.19,0,1,0,20,12.76,9.19,9.19,0,0,0,29.2,22Z"/><path class="cls-5" d="M10.68,18.52a5.76,5.76,0,1,0-5.76-5.76,5.76,5.76,0,0,0,5.76,5.76Z"/><path class="cls-5" d="M29.72,18.52A5.76,5.76,0,1,0,24,12.76a5.76,5.76,0,0,0,5.76,5.76Z"/><path class="cls-1" d="M10.11,13a1.58,1.58,0,1,0-1.58-1.58A1.57,1.57,0,0,0,10.11,13Z"/><path class="cls-1" d="M31,13a1.58,1.58,0,1,0-1.58-1.58A1.57,1.57,0,0,0,31,13Z"/><polygon class="cls-1" points="1.33 2.5 1.33 13.52 12.35 13.52 12.35 2.5 1.33 2.5 1.33 2.5"/><path class="cls-3" d="M13.25,14.42H.43V1.6H13.25Zm-11-1.8h9.22V3.4H2.23Z"/><path class="cls-3" d="M29.28,14.42H16.46V1.6H29.28Zm-11-1.8h9.22V3.4H18.26Z"/><path class="cls-1" d="M19.85,38.62A18.74,18.74,0,1,0,1.11,19.89,18.74,18.74,0,0,0,19.85,38.62Z"/><path class="cls-3" d="M19.85,39.52A19.64,19.64,0,1,1,39.49,19.89,19.65,19.65,0,0,1,19.85,39.52Zm0-37.47A17.84,17.84,0,1,0,37.69,19.89,17.85,17.85,0,0,0,19.85,2.05Z"/><polygon class="cls-1" points="14.88 16.1 19.81 21.04 24.75 16.1 19.81 11.17 14.88 16.1 14.88 16.1"/><path class="cls-3" d="M19.81,22.31l-6.2-6.21,6.2-6.2L26,16.1ZM16.15,16.1l3.66,3.66,3.67-3.66-3.67-3.66Z"/><path class="cls-1" d="M10.1,22A9.18,9.18,0,1,0,.92,12.77,9.18,9.18,0,0,0,10.1,22Z"/><path class="cls-3" d="M10.1,22.84A10.08,10.08,0,1,1,20.18,12.77,10.09,10.09,0,0,1,10.1,22.84Zm0-18.35a8.28,8.28,0,1,0,8.28,8.28A8.29,8.29,0,0,0,10.1,4.49Z"/><path class="cls-1" d="M29.37,22a9.18,9.18,0,1,0-9.18-9.18A9.18,9.18,0,0,0,29.37,22Z"/><path class="cls-3" d="M29.37,22.84A10.08,10.08,0,1,1,39.45,12.77,10.09,10.09,0,0,1,29.37,22.84Zm0-18.35a8.28,8.28,0,1,0,8.28,8.28A8.29,8.29,0,0,0,29.37,4.49Z"/><path class="cls-3" d="M10.1,18.52a5.76,5.76,0,1,0-5.75-5.76,5.76,5.76,0,0,0,5.75,5.76Z"/><path class="cls-3" d="M29.37,18.52a5.76,5.76,0,1,0-5.76-5.76,5.76,5.76,0,0,0,5.76,5.76Z"/><path class="cls-1" d="M8.58,13A1.58,1.58,0,1,0,7,11.37,1.57,1.57,0,0,0,8.58,13Z"/><path class="cls-1" d="M31,13a1.58,1.58,0,1,0-1.58-1.58A1.57,1.57,0,0,0,31,13Z"/><polygon class="cls-3" points="64.29 74.03 64.29 63.02 53.27 63.02 53.27 74.03 64.29 74.03 64.29 74.03"/><polygon class="cls-2" points="64.29 74.03 64.29 63.02 53.27 63.02 53.27 74.03 64.29 74.03 64.29 74.03"/><polygon class="cls-3" points="38.26 74.03 38.26 63.02 27.25 63.02 27.25 74.03 38.26 74.03 38.26 74.03"/><polygon class="cls-2" points="38.26 74.03 38.26 63.02 27.25 63.02 27.25 74.03 38.26 74.03 38.26 74.03"/><path class="cls-3" d="M45.79,38.16A18.74,18.74,0,1,0,64.53,56.9,18.74,18.74,0,0,0,45.79,38.16Z"/><path class="cls-6" d="M45.79,38.16A18.74,18.74,0,1,0,64.53,56.9,18.74,18.74,0,0,0,45.79,38.16Z"/><polygon class="cls-3" points="50.74 60.44 45.81 55.5 40.87 60.44 45.81 65.37 50.74 60.44 50.74 60.44"/><polygon class="cls-7" points="50.74 60.44 45.81 55.5 40.87 60.44 45.81 65.37 50.74 60.44 50.74 60.44"/><path class="cls-3" d="M36.43,54.59a9.18,9.18,0,1,0,9.18,9.18,9.18,9.18,0,0,0-9.18-9.18Z"/><path class="cls-6" d="M36.43,54.59a9.18,9.18,0,1,0,9.18,9.18,9.18,9.18,0,0,0-9.18-9.18Z"/><path class="cls-3" d="M55.74,54.59a9.18,9.18,0,1,0,9.18,9.18,9.18,9.18,0,0,0-9.18-9.18Z"/><path class="cls-6" d="M55.74,54.59a9.18,9.18,0,1,0,9.18,9.18,9.18,9.18,0,0,0-9.18-9.18Z"/><path class="cls-1" d="M41.66,63.77a5.76,5.76,0,0,0-11.51,0"/><path class="cls-1" d="M61,63.77a5.76,5.76,0,0,0-11.51,0"/><path class="cls-1" d="M58.48,39.92a1,1,0,0,0,1,1h0a1,1,0,0,0,1-1V36.09a1,1,0,0,0-1-1h0a1,1,0,0,0-1,1v3.83Z"/><path class="cls-8" d="M58.48,39.92a1,1,0,0,0,1,1h0a1,1,0,0,0,1-1V36.09a1,1,0,0,0-1-1h0a1,1,0,0,0-1,1v3.83Z"/><path class="cls-1" d="M56.08,39.92a1,1,0,0,0,1,1h0a1,1,0,0,0,1-1V36.09a1,1,0,0,0-1-1h0a1,1,0,0,0-1,1v3.83Z"/><path class="cls-8" d="M56.08,39.92a1,1,0,0,0,1,1h0a1,1,0,0,0,1-1V36.09a1,1,0,0,0-1-1h0a1,1,0,0,0-1,1v3.83Z"/><path class="cls-1" d="M53.68,39.92a1,1,0,0,0,1,1h0a1,1,0,0,0,1-1V36.09a1,1,0,0,0-1-1h0a1,1,0,0,0-1,1v3.83Z"/><path class="cls-8" d="M53.68,39.92a1,1,0,0,0,1,1h0a1,1,0,0,0,1-1V36.09a1,1,0,0,0-1-1h0a1,1,0,0,0-1,1v3.83Z"/><path class="cls-1" d="M174.92,27.19h2.85L170.64,5.11h-2.38l-7.11,22.08H164l1.71-5.78h7.46l1.75,5.78ZM169.44,9l3,10h-6l3-10Zm16-3.88h-2.79V27.19h11.45V24.8h-8.66V5.11Zm20.33,22.08a6.12,6.12,0,0,0,4.64-1.7A6.45,6.45,0,0,0,212,20.82a6.28,6.28,0,0,0-.88-3.4,4.22,4.22,0,0,0-2.41-1.86,5.19,5.19,0,0,0,2.09-1.84A4.8,4.8,0,0,0,211.6,11a5.86,5.86,0,0,0-1.53-4.42,6.27,6.27,0,0,0-4.53-1.47h-6.3V27.19Zm.12-10.33q3.36,0,3.36,4a4.29,4.29,0,0,1-.92,2.92,3.19,3.19,0,0,1-2.5,1H202V16.86ZM202,7.49h3.52a3.27,3.27,0,0,1,2.45.83,3.69,3.69,0,0,1,.8,2.65,3.65,3.65,0,0,1-.88,2.58,3,3,0,0,1-2.33,1H202v-7Zm28.06,19.7h2.85L225.8,5.11h-2.38l-7.11,22.08h2.85l1.71-5.78h7.46l1.75,5.78ZM224.6,9l3,10h-6l3-10Z"/><path class="cls-1" d="M61.52,4.87H58.76V22L49.89,4.87H47.1V26.94h2.79v-17l8.84,17h2.79V4.87Zm21,9q0-4.46-2-6.85a7.27,7.27,0,0,0-10.9.1,11.07,11.07,0,0,0-2,6.94v4.15a10.55,10.55,0,0,0,2,6.71,6.66,6.66,0,0,0,5.39,2.37,6.54,6.54,0,0,0,5.47-2.44q1.94-2.44,1.93-7v-4Zm-2.77,4.29a9.16,9.16,0,0,1-1.17,5,4.42,4.42,0,0,1-7-.13,9.41,9.41,0,0,1-1.17-5.16V13.89a9.1,9.1,0,0,1,1.19-5.1,4.39,4.39,0,0,1,7,0A9.4,9.4,0,0,1,79.77,14v4.13Zm20,1.81a6.84,6.84,0,0,1-1.18,3.87,4,4,0,0,1-3.13,1.07,3.66,3.66,0,0,1-3.29-1.79A9.58,9.58,0,0,1,91,17.93v-4a9.14,9.14,0,0,1,1.21-5.18,4,4,0,0,1,3.47-1.77A3.54,3.54,0,0,1,98.59,8.1,6.76,6.76,0,0,1,99.73,12h2.8a8.37,8.37,0,0,0-1.9-5.48,6.4,6.4,0,0,0-4.95-1.91,6.68,6.68,0,0,0-5.48,2.5,10.58,10.58,0,0,0-2,6.81v4a10.94,10.94,0,0,0,2,6.85,6.32,6.32,0,0,0,5.27,2.52,6.75,6.75,0,0,0,5.12-1.89,8.14,8.14,0,0,0,2-5.43Zm20.89-15H106.25V7.25H112V26.94h2.77V7.25h5.81V4.87Zm8,0h-2.78V26.94h2.78V4.87Zm15.44,19.05a3.71,3.71,0,0,1-2.76.94,4,4,0,0,1-4.26-4.32h-2.79A6.53,6.53,0,0,0,135.2,24a6.39,6.39,0,0,0,2.57,2.37,7.62,7.62,0,0,0,3.55.84,6.76,6.76,0,0,0,4.75-1.61,5.59,5.59,0,0,0,1.74-4.3,6,6,0,0,0-1.4-4.12,10.61,10.61,0,0,0-4.66-2.66,9.09,9.09,0,0,1-3.1-1.68,3.11,3.11,0,0,1-1-2.34,3.57,3.57,0,0,1,.93-2.64,3.47,3.47,0,0,1,2.61-.95A3.57,3.57,0,0,1,144,8.07a4.6,4.6,0,0,1,1,3.16h2.79A7.19,7.19,0,0,0,147,7.84a6,6,0,0,0-2.34-2.41,6.8,6.8,0,0,0-3.45-.87,6.32,6.32,0,0,0-4.59,1.7,5.74,5.74,0,0,0-1.75,4.32,5.7,5.7,0,0,0,.61,2.69,6.26,6.26,0,0,0,1.85,2.09,13.6,13.6,0,0,0,3.57,1.75,9.17,9.17,0,0,1,3.23,1.72,3.37,3.37,0,0,1,.89,2.53,3.46,3.46,0,0,1-.92,2.56Z"/><path class="cls-1" d="M35.4,36.49a1,1,0,0,0-1-1h0a1,1,0,0,0-1,1v3.84a1,1,0,0,0,1,1h0a1,1,0,0,0,1-1V36.49Z"/><path class="cls-3" d="M34.42,42.12a1.57,1.57,0,0,1-1.57-1.58V36.71a1.58,1.58,0,1,1,3.15,0v3.83A1.58,1.58,0,0,1,34.42,42.12Zm0-5.79a.38.38,0,0,0-.37.38v3.83a.38.38,0,1,0,.75,0V36.71A.38.38,0,0,0,34.42,36.33Z"/><path class="cls-1" d="M30.6,36.49a1,1,0,0,0-1-1h0a1,1,0,0,0-1,1v3.84a1,1,0,0,0,1,1h0a1,1,0,0,0,1-1V36.49Z"/><path class="cls-3" d="M29.63,42.12a1.58,1.58,0,0,1-1.58-1.58V36.71a1.58,1.58,0,1,1,3.15,0v3.83A1.58,1.58,0,0,1,29.63,42.12Zm0-5.79a.38.38,0,0,0-.38.38v3.83a.38.38,0,1,0,.75,0V36.71A.38.38,0,0,0,29.63,36.33Z"/><path class="cls-1" d="M33,36.49a1,1,0,0,0-1-1h0a1,1,0,0,0-1,1v3.84a1,1,0,0,0,1,1h0a1,1,0,0,0,1-1V36.49Z"/><path class="cls-3" d="M32,42.12a1.57,1.57,0,0,1-1.57-1.58V36.71a1.58,1.58,0,1,1,3.15,0v3.83A1.58,1.58,0,0,1,32,42.12Zm0-5.79a.38.38,0,0,0-.37.38v3.83a.38.38,0,1,0,.75,0V36.71A.38.38,0,0,0,32,36.33Z"/><path class="cls-1" d="M8.61,36.49a1,1,0,0,0-1-1h0a1,1,0,0,0-1,1v3.84a1,1,0,0,0,1,1h0a1,1,0,0,0,1-1V36.49Z"/><path class="cls-3" d="M7.64,42.12a1.58,1.58,0,0,1-1.58-1.58V36.71a1.58,1.58,0,1,1,3.15,0v3.83A1.57,1.57,0,0,1,7.64,42.12Zm0-5.79a.38.38,0,0,0-.38.38v3.83a.38.38,0,1,0,.75,0V36.71A.38.38,0,0,0,7.64,36.33Z"/><path class="cls-1" d="M6.21,36.49a1,1,0,0,0-1-1h0a1,1,0,0,0-1,1v3.84a1,1,0,0,0,1,1h0a1,1,0,0,0,1-1V36.49Z"/><path class="cls-3" d="M5.24,42.12a1.58,1.58,0,0,1-1.58-1.58V36.71a1.58,1.58,0,1,1,3.15,0v3.83A1.57,1.57,0,0,1,5.24,42.12Zm0-5.79a.38.38,0,0,0-.38.38v3.83a.38.38,0,1,0,.75,0V36.71A.38.38,0,0,0,5.24,36.33Z"/><path class="cls-1" d="M11,36.49a1,1,0,0,0-1-1h0a1,1,0,0,0-1,1v3.84a1,1,0,0,0,1,1h0a1,1,0,0,0,1-1V36.49Z"/><path class="cls-3" d="M10,42.12a1.58,1.58,0,0,1-1.57-1.58V36.71a1.58,1.58,0,1,1,3.15,0v3.83A1.58,1.58,0,0,1,10,42.12Zm0-5.79a.38.38,0,0,0-.37.38v3.83a.38.38,0,1,0,.75,0V36.71A.38.38,0,0,0,10,36.33Z"/></g></g></svg>