<svg xmlns="http://www.w3.org/2000/svg" viewBox="0 0 245.08 78.97"><defs><style>.cls-1{fill:#9f2d91;}.cls-2{fill:#fff;}.cls-3,.cls-4,.cls-6,.cls-7,.cls-8{fill:none;}.cls-3,.cls-8{stroke:#9f2d91;}.cls-3,.cls-6{stroke-width:1.8px;}.cls-4{stroke:#231f20;}.cls-4,.cls-7{stroke-width:1.8px;}.cls-5{fill:#231f20;}.cls-6,.cls-7{stroke:#fff;}.cls-8{stroke-width:1.2px;}</style></defs><g id="Layer_2" data-name="Layer 2"><g id="Layer_1-2" data-name="Layer 1"><rect class="cls-1" width="245.08" height="41.06"/><polygon class="cls-2" points="8.28 4.94 8.28 15.95 19.3 15.95 19.3 4.94 8.28 4.94 8.28 4.94"/><polygon class="cls-3" points="8.28 4.94 8.28 15.95 19.3 15.95 19.3 4.94 8.28 4.94 8.28 4.94"/><polygon class="cls-2" points="34.31 4.94 34.31 15.95 45.33 15.95 45.33 4.94 34.31 4.94 34.31 4.94"/><path class="cls-1" d="M46.23,16.85H33.41V4H46.23Zm-11-1.8h9.22V5.84H35.21Z"/><path class="cls-2" d="M26.78,40.81A18.74,18.74,0,1,0,8,22.07,18.74,18.74,0,0,0,26.78,40.81Z"/><path class="cls-3" d="M26.78,40.81A18.74,18.74,0,1,0,8,22.07,18.74,18.74,0,0,0,26.78,40.81Z"/><polygon class="cls-2" points="21.83 18.54 26.77 23.47 31.7 18.54 26.77 13.6 21.83 18.54 21.83 18.54"/><polygon class="cls-4" points="21.83 18.54 26.77 23.47 31.7 18.54 26.77 13.6 21.83 18.54 21.83 18.54"/><path class="cls-2" d="M17,24.38A9.18,9.18,0,1,0,7.85,15.2,9.18,9.18,0,0,0,17,24.38Z"/><path class="cls-3" d="M17,24.38A9.18,9.18,0,1,0,7.85,15.2,9.18,9.18,0,0,0,17,24.38Z"/><path class="cls-2" d="M36.15,24.38A9.18,9.18,0,1,0,27,15.2a9.18,9.18,0,0,0,9.18,9.18Z"/><path class="cls-3" d="M36.15,24.38A9.18,9.18,0,1,0,27,15.2a9.18,9.18,0,0,0,9.18,9.18Z"/><path class="cls-5" d="M17.63,21a5.76,5.76,0,1,0-5.76-5.75A5.75,5.75,0,0,0,17.63,21Z"/><path class="cls-5" d="M36.67,21a5.76,5.76,0,1,0-5.76-5.75A5.75,5.75,0,0,0,36.67,21Z"/><path class="cls-2" d="M17.06,15.38a1.58,1.58,0,1,0-1.57-1.57,1.57,1.57,0,0,0,1.57,1.57Z"/><path class="cls-2" d="M37.94,15.38a1.58,1.58,0,0,0,0-3.15,1.58,1.58,0,1,0,0,3.15Z"/><polygon class="cls-2" points="8.28 4.94 8.28 15.95 19.3 15.95 19.3 4.94 8.28 4.94 8.28 4.94"/><path class="cls-1" d="M20.2,16.85H7.38V4H20.2Zm-11-1.8H18.4V5.84H9.18Z"/><path class="cls-1" d="M36.23,16.85H23.41V4H36.23Zm-11-1.8h9.22V5.84H25.21Z"/><path class="cls-2" d="M26.8,41.06A18.74,18.74,0,1,0,8.07,22.32,18.74,18.74,0,0,0,26.8,41.06Z"/><path class="cls-1" d="M26.8,42A19.64,19.64,0,1,1,46.44,22.32,19.66,19.66,0,0,1,26.8,42Zm0-37.48A17.84,17.84,0,1,0,44.64,22.32,17.85,17.85,0,0,0,26.8,4.48Z"/><polygon class="cls-2" points="21.83 18.54 26.77 23.47 31.7 18.54 26.77 13.6 21.83 18.54 21.83 18.54"/><path class="cls-1" d="M26.76,24.74l-6.2-6.2,6.2-6.21L33,18.54Zm-3.66-6.2,3.66,3.66,3.67-3.66-3.67-3.67Z"/><path class="cls-2" d="M17.05,24.38A9.18,9.18,0,1,0,7.87,15.2a9.18,9.18,0,0,0,9.18,9.18Z"/><path class="cls-1" d="M17.05,25.28A10.08,10.08,0,1,1,27.13,15.2,10.09,10.09,0,0,1,17.05,25.28Zm0-18.36a8.28,8.28,0,1,0,8.28,8.28A8.29,8.29,0,0,0,17.05,6.92Z"/><path class="cls-2" d="M36.32,24.38a9.18,9.18,0,1,0-9.18-9.18,9.18,9.18,0,0,0,9.18,9.18Z"/><path class="cls-1" d="M36.32,25.28A10.08,10.08,0,1,1,46.4,15.2,10.09,10.09,0,0,1,36.32,25.28Zm0-18.36A8.28,8.28,0,1,0,44.6,15.2,8.29,8.29,0,0,0,36.32,6.92Z"/><path class="cls-1" d="M17.05,21A5.76,5.76,0,1,0,11.3,15.2,5.75,5.75,0,0,0,17.05,21Z"/><path class="cls-1" d="M36.32,21a5.76,5.76,0,1,0-5.75-5.75A5.75,5.75,0,0,0,36.32,21Z"/><path class="cls-2" d="M15.53,15.38a1.58,1.58,0,0,0,0-3.15,1.58,1.58,0,1,0,0,3.15Z"/><path class="cls-2" d="M37.94,15.38a1.58,1.58,0,0,0,0-3.15,1.58,1.58,0,1,0,0,3.15Z"/><polygon class="cls-1" points="71.24 76.47 71.24 65.45 60.23 65.45 60.23 76.47 71.24 76.47 71.24 76.47"/><polygon class="cls-3" points="71.24 76.47 71.24 65.45 60.23 65.45 60.23 76.47 71.24 76.47 71.24 76.47"/><polygon class="cls-1" points="45.21 76.47 45.21 65.45 34.2 65.45 34.2 76.47 45.21 76.47 45.21 76.47"/><polygon class="cls-3" points="45.21 76.47 45.21 65.45 34.2 65.45 34.2 76.47 45.21 76.47 45.21 76.47"/><path class="cls-1" d="M52.74,40.6A18.74,18.74,0,1,0,71.48,59.33,18.73,18.73,0,0,0,52.74,40.6Z"/><path class="cls-6" d="M52.74,40.6A18.74,18.74,0,1,0,71.48,59.33,18.73,18.73,0,0,0,52.74,40.6Z"/><polygon class="cls-1" points="57.69 62.87 52.76 57.94 47.83 62.87 52.76 67.8 57.69 62.87 57.69 62.87"/><polygon class="cls-7" points="57.69 62.87 52.76 57.94 47.83 62.87 52.76 67.8 57.69 62.87 57.69 62.87"/><path class="cls-1" d="M43.38,57a9.18,9.18,0,1,0,9.18,9.18A9.18,9.18,0,0,0,43.38,57Z"/><path class="cls-6" d="M43.38,57a9.18,9.18,0,1,0,9.18,9.18A9.18,9.18,0,0,0,43.38,57Z"/><path class="cls-1" d="M62.69,57a9.18,9.18,0,1,0,9.18,9.18A9.18,9.18,0,0,0,62.69,57Z"/><path class="cls-6" d="M62.69,57a9.18,9.18,0,1,0,9.18,9.18A9.18,9.18,0,0,0,62.69,57Z"/><path class="cls-2" d="M48.61,66.21a5.76,5.76,0,1,0-11.51,0"/><path class="cls-2" d="M67.92,66.21a5.76,5.76,0,1,0-11.51,0"/><path class="cls-2" d="M65.43,42.35a1,1,0,0,0,1,1h0a1,1,0,0,0,1-1V38.52a1,1,0,0,0-1-1h0a1,1,0,0,0-1,1v3.83Z"/><path class="cls-8" d="M65.43,42.35a1,1,0,0,0,1,1h0a1,1,0,0,0,1-1V38.52a1,1,0,0,0-1-1h0a1,1,0,0,0-1,1v3.83Z"/><path class="cls-2" d="M63,42.35a1,1,0,0,0,1,1h0a1,1,0,0,0,1-1V38.52a1,1,0,0,0-1-1h0a1,1,0,0,0-1,1v3.83Z"/><path class="cls-8" d="M63,42.35a1,1,0,0,0,1,1h0a1,1,0,0,0,1-1V38.52a1,1,0,0,0-1-1h0a1,1,0,0,0-1,1v3.83Z"/><path class="cls-2" d="M60.63,42.35a1,1,0,0,0,1,1h0a1,1,0,0,0,1-1V38.52a1,1,0,0,0-1-1h0a1,1,0,0,0-1,1v3.83Z"/><path class="cls-8" d="M60.63,42.35a1,1,0,0,0,1,1h0a1,1,0,0,0,1-1V38.52a1,1,0,0,0-1-1h0a1,1,0,0,0-1,1v3.83Z"/><path class="cls-2" d="M179.87,31.62h2.85L175.59,9.55h-2.38L166.1,31.62H169l1.72-5.78h7.45l1.75,5.78Zm-5.48-18.19,3,10h-6l3-10Zm16-3.88h-2.79V31.62H199V29.24h-8.66V9.55ZM210.7,31.62a6.12,6.12,0,0,0,4.64-1.7A6.45,6.45,0,0,0,217,25.25a6.25,6.25,0,0,0-.88-3.39A4.21,4.21,0,0,0,213.68,20a5.19,5.19,0,0,0,2.1-1.83,4.93,4.93,0,0,0,.77-2.73A5.88,5.88,0,0,0,215,11a6.31,6.31,0,0,0-4.54-1.47h-6.3V31.62Zm.12-10.32c2.24,0,3.36,1.32,3.36,4a4.21,4.21,0,0,1-.92,2.92,3.19,3.19,0,0,1-2.5,1H207V21.3ZM207,11.93h3.52a3.27,3.27,0,0,1,2.45.82,3.71,3.71,0,0,1,.8,2.66,3.69,3.69,0,0,1-.88,2.58,3,3,0,0,1-2.33,1H207v-7ZM235,31.62h2.85L230.75,9.55h-2.38l-7.11,22.07h2.85l1.71-5.78h7.46L235,31.62Zm-5.48-18.19,3,10h-6l3-10Z"/><path class="cls-2" d="M66.47,9.3H63.71V26.38L54.84,9.3H52.05V31.37h2.79v-17l8.84,17h2.79V9.3Zm21,9q0-4.46-2-6.86A6.61,6.61,0,0,0,80.06,9a6.5,6.5,0,0,0-5.45,2.51,11,11,0,0,0-2,6.93v4.15a10.55,10.55,0,0,0,2,6.71,6.66,6.66,0,0,0,5.39,2.37,6.57,6.57,0,0,0,5.48-2.44q1.92-2.43,1.92-6.95v-4Zm-2.77,4.29a9.19,9.19,0,0,1-1.17,5,3.9,3.9,0,0,1-3.46,1.63,4,4,0,0,1-3.51-1.77,9.37,9.37,0,0,1-1.17-5.15v-4a9.17,9.17,0,0,1,1.19-5.09,3.9,3.9,0,0,1,3.46-1.73,3.94,3.94,0,0,1,3.51,1.7,9.42,9.42,0,0,1,1.15,5.21v4.14Zm20,1.8a6.84,6.84,0,0,1-1.18,3.87,4,4,0,0,1-3.13,1.07,3.65,3.65,0,0,1-3.29-1.78A9.63,9.63,0,0,1,96,22.37V18.32a9.16,9.16,0,0,1,1.21-5.18,4,4,0,0,1,3.47-1.76,3.54,3.54,0,0,1,2.91,1.15,6.78,6.78,0,0,1,1.14,3.85h2.8a8.32,8.32,0,0,0-1.9-5.47,6.36,6.36,0,0,0-5-1.91,6.65,6.65,0,0,0-5.48,2.5,10.55,10.55,0,0,0-2,6.8v4a10.9,10.9,0,0,0,2,6.84,6.32,6.32,0,0,0,5.27,2.52,6.75,6.75,0,0,0,5.12-1.88,8.17,8.17,0,0,0,2-5.44Zm20.89-15H111.2v2.38H117V31.37h2.77V11.68h5.81V9.3Zm8,0h-2.78V31.37h2.78V9.3ZM149,28.35a3.71,3.71,0,0,1-2.76.94,4.2,4.2,0,0,1-3.11-1.13A4.27,4.27,0,0,1,142,25h-2.79a6.59,6.59,0,0,0,.93,3.5,6.44,6.44,0,0,0,2.57,2.36,7.62,7.62,0,0,0,3.55.84A6.72,6.72,0,0,0,151,30.06a5.59,5.59,0,0,0,1.74-4.3,6,6,0,0,0-1.4-4.12A10.71,10.71,0,0,0,146.7,19a8.76,8.76,0,0,1-3.1-1.68,3.11,3.11,0,0,1-1-2.34,3.6,3.6,0,0,1,.93-2.64,3.46,3.46,0,0,1,2.61-.94A3.56,3.56,0,0,1,149,12.5a4.63,4.63,0,0,1,1,3.17h2.78a7.2,7.2,0,0,0-.81-3.4,6,6,0,0,0-2.34-2.41A6.9,6.9,0,0,0,146.14,9a6.33,6.33,0,0,0-4.59,1.69A5.77,5.77,0,0,0,139.8,15a5.75,5.75,0,0,0,.61,2.7,6.26,6.26,0,0,0,1.85,2.09,14.43,14.43,0,0,0,3.57,1.75,9.18,9.18,0,0,1,3.23,1.71,3.38,3.38,0,0,1,.9,2.53,3.47,3.47,0,0,1-.93,2.56Z"/><path class="cls-2" d="M42.35,38.93a1,1,0,0,0-1-1h0a1,1,0,0,0-1,1v3.83a1,1,0,0,0,1,1h0a1,1,0,0,0,1-1V38.93Z"/><path class="cls-1" d="M41.37,44.55A1.57,1.57,0,0,1,39.8,43V39.14a1.58,1.58,0,1,1,3.15,0V43A1.58,1.58,0,0,1,41.37,44.55Zm0-5.79a.38.38,0,0,0-.37.38V43a.38.38,0,0,0,.75,0V39.14A.38.38,0,0,0,41.37,38.76Z"/><path class="cls-2" d="M37.55,38.93a1,1,0,0,0-1-1h0a1,1,0,0,0-1,1v3.83a1,1,0,0,0,1,1h0a1,1,0,0,0,1-1V38.93Z"/><path class="cls-1" d="M36.58,44.55A1.58,1.58,0,0,1,35,43V39.14a1.58,1.58,0,1,1,3.15,0V43A1.57,1.57,0,0,1,36.58,44.55Zm0-5.79a.38.38,0,0,0-.38.38V43A.38.38,0,0,0,37,43V39.14A.38.38,0,0,0,36.58,38.76Z"/><path class="cls-2" d="M40,38.93a1,1,0,0,0-1-1h0a1,1,0,0,0-1,1v3.83a1,1,0,0,0,1,1h0a1,1,0,0,0,1-1V38.93Z"/><path class="cls-1" d="M39,44.55A1.58,1.58,0,0,1,37.4,43V39.14a1.58,1.58,0,1,1,3.15,0V43A1.58,1.58,0,0,1,39,44.55Zm0-5.79a.38.38,0,0,0-.38.38V43a.38.38,0,0,0,.75,0V39.14A.38.38,0,0,0,39,38.76Z"/><path class="cls-2" d="M15.56,38.93a1,1,0,0,0-1-1h0a1,1,0,0,0-1,1v3.83a1,1,0,0,0,1,1h0a1,1,0,0,0,1-1V38.93Z"/><path class="cls-1" d="M14.59,44.55A1.58,1.58,0,0,1,13,43V39.14a1.58,1.58,0,1,1,3.15,0V43A1.57,1.57,0,0,1,14.59,44.55Zm0-5.79a.38.38,0,0,0-.38.38V43A.38.38,0,0,0,15,43V39.14A.38.38,0,0,0,14.59,38.76Z"/><path class="cls-2" d="M13.16,38.93a1,1,0,0,0-1-1h0a1,1,0,0,0-1,1v3.83a1,1,0,0,0,1,1h0a1,1,0,0,0,1-1V38.93Z"/><path class="cls-1" d="M12.19,44.55A1.58,1.58,0,0,1,10.61,43V39.14a1.58,1.58,0,0,1,3.16,0V43A1.58,1.58,0,0,1,12.19,44.55Zm0-5.79a.38.38,0,0,0-.38.38V43a.38.38,0,0,0,.38.37.37.37,0,0,0,.37-.37V39.14A.37.37,0,0,0,12.19,38.76Z"/><path class="cls-2" d="M18,38.93a1,1,0,0,0-1-1h0a1,1,0,0,0-1,1v3.83a1,1,0,0,0,1,1h0a1,1,0,0,0,1-1V38.93Z"/><path class="cls-1" d="M17,44.55A1.58,1.58,0,0,1,15.41,43V39.14a1.58,1.58,0,1,1,3.15,0V43A1.57,1.57,0,0,1,17,44.55Zm0-5.79a.38.38,0,0,0-.38.38V43a.38.38,0,0,0,.75,0V39.14A.38.38,0,0,0,17,38.76Z"/></g></g></svg>